<mxfile host="Electron" agent="Mozilla/5.0 (Macintosh; Intel Mac OS X 10_15_7) AppleWebKit/537.36 (KHTML, like Gecko) draw.io/25.0.2 Chrome/128.0.6613.186 Electron/32.2.5 Safari/537.36" version="25.0.2">
  <diagram name="Страница — 1" id="RvfH6uTryM630vdm2Nb2">
    <mxGraphModel dx="4140" dy="2723" grid="1" gridSize="10" guides="1" tooltips="1" connect="1" arrows="1" fold="1" page="1" pageScale="1" pageWidth="1169" pageHeight="827" math="0" shadow="0">
      <root>
        <mxCell id="0" />
        <mxCell id="1" parent="0" />
        <mxCell id="OCOYGGUI2PRtWdCiAxds-1" value="" style="html=1;dashed=0;whiteSpace=wrap;shape=mxgraph.dfd.dataStoreID;align=left;spacingLeft=3;points=[[0,0],[0.5,0],[1,0],[0,0.5],[1,0.5],[0,1],[0.5,1],[1,1]];" vertex="1" parent="1">
          <mxGeometry x="1510" y="361.5" width="280" height="45" as="geometry" />
        </mxCell>
        <mxCell id="OCOYGGUI2PRtWdCiAxds-2" value="Реестр анализов за день" style="text;whiteSpace=wrap;align=center;" vertex="1" parent="1">
          <mxGeometry x="1540" y="369" width="250" height="30" as="geometry" />
        </mxCell>
        <mxCell id="OCOYGGUI2PRtWdCiAxds-3" value="???" style="html=1;dashed=0;whiteSpace=wrap;rounded=0;" vertex="1" parent="1">
          <mxGeometry x="450" y="359" width="100" height="50" as="geometry" />
        </mxCell>
        <mxCell id="OCOYGGUI2PRtWdCiAxds-4" value="" style="swimlane;fontStyle=0;childLayout=stackLayout;horizontal=1;startSize=20;fillColor=#ffffff;horizontalStack=0;resizeParent=1;resizeParentMax=0;resizeLast=0;collapsible=0;marginBottom=0;swimlaneFillColor=#ffffff;rounded=0;" vertex="1" parent="1">
          <mxGeometry x="670" y="354" width="180" height="60" as="geometry" />
        </mxCell>
        <mxCell id="OCOYGGUI2PRtWdCiAxds-5" value="Прием анализов от лабораторий" style="text;whiteSpace=wrap;align=center;" vertex="1" parent="OCOYGGUI2PRtWdCiAxds-4">
          <mxGeometry y="20" width="180" height="40" as="geometry" />
        </mxCell>
        <mxCell id="OCOYGGUI2PRtWdCiAxds-6" value="Клинические данные" style="endArrow=classic;html=1;rounded=0;exitX=1;exitY=0.5;exitDx=0;exitDy=0;" edge="1" parent="1" target="OCOYGGUI2PRtWdCiAxds-4">
          <mxGeometry y="15" width="50" height="50" relative="1" as="geometry">
            <mxPoint x="550" y="383.5" as="sourcePoint" />
            <mxPoint x="670" y="383.5" as="targetPoint" />
            <mxPoint as="offset" />
          </mxGeometry>
        </mxCell>
        <mxCell id="OCOYGGUI2PRtWdCiAxds-7" value="Клинические&amp;nbsp;&lt;div&gt;данные&lt;/div&gt;" style="endArrow=classic;html=1;rounded=0;exitX=1;exitY=0.25;exitDx=0;exitDy=0;entryX=0;entryY=0.25;entryDx=0;entryDy=0;" edge="1" parent="1" source="OCOYGGUI2PRtWdCiAxds-5" target="OCOYGGUI2PRtWdCiAxds-9">
          <mxGeometry y="15" width="50" height="50" relative="1" as="geometry">
            <mxPoint x="910" y="376.5" as="sourcePoint" />
            <mxPoint x="1030" y="376.5" as="targetPoint" />
            <mxPoint as="offset" />
          </mxGeometry>
        </mxCell>
        <mxCell id="OCOYGGUI2PRtWdCiAxds-8" value="" style="swimlane;fontStyle=0;childLayout=stackLayout;horizontal=1;startSize=20;fillColor=#ffffff;horizontalStack=0;resizeParent=1;resizeParentMax=0;resizeLast=0;collapsible=0;marginBottom=0;swimlaneFillColor=#ffffff;rounded=0;" vertex="1" parent="1">
          <mxGeometry x="950" y="354" width="180" height="60" as="geometry" />
        </mxCell>
        <mxCell id="OCOYGGUI2PRtWdCiAxds-9" value="Тегирование &#xa;данных" style="text;whiteSpace=wrap;align=center;" vertex="1" parent="OCOYGGUI2PRtWdCiAxds-8">
          <mxGeometry y="20" width="180" height="40" as="geometry" />
        </mxCell>
        <mxCell id="OCOYGGUI2PRtWdCiAxds-10" value="" style="swimlane;fontStyle=0;childLayout=stackLayout;horizontal=1;startSize=20;fillColor=#ffffff;horizontalStack=0;resizeParent=1;resizeParentMax=0;resizeLast=0;collapsible=0;marginBottom=0;swimlaneFillColor=#ffffff;rounded=0;" vertex="1" parent="1">
          <mxGeometry x="1230" y="354" width="180" height="60" as="geometry" />
        </mxCell>
        <mxCell id="OCOYGGUI2PRtWdCiAxds-11" value="Обезличивание данных" style="text;whiteSpace=wrap;align=center;" vertex="1" parent="OCOYGGUI2PRtWdCiAxds-10">
          <mxGeometry y="20" width="180" height="40" as="geometry" />
        </mxCell>
        <mxCell id="OCOYGGUI2PRtWdCiAxds-12" value="Клинические&amp;nbsp;&lt;div&gt;данные&lt;/div&gt;" style="endArrow=classic;html=1;rounded=0;exitX=1;exitY=0.25;exitDx=0;exitDy=0;entryX=0;entryY=0.25;entryDx=0;entryDy=0;" edge="1" parent="1">
          <mxGeometry y="15" width="50" height="50" relative="1" as="geometry">
            <mxPoint x="1130" y="383.58000000000004" as="sourcePoint" />
            <mxPoint x="1230" y="383.58000000000004" as="targetPoint" />
            <mxPoint as="offset" />
          </mxGeometry>
        </mxCell>
        <mxCell id="OCOYGGUI2PRtWdCiAxds-13" value="Клинические&amp;nbsp;&lt;div&gt;данные&lt;/div&gt;" style="endArrow=classic;html=1;rounded=0;exitX=1;exitY=0.25;exitDx=0;exitDy=0;entryX=0;entryY=0.25;entryDx=0;entryDy=0;" edge="1" parent="1">
          <mxGeometry y="15" width="50" height="50" relative="1" as="geometry">
            <mxPoint x="1410" y="383.58000000000004" as="sourcePoint" />
            <mxPoint x="1510" y="383.58000000000004" as="targetPoint" />
            <mxPoint as="offset" />
          </mxGeometry>
        </mxCell>
      </root>
    </mxGraphModel>
  </diagram>
</mxfile>
